# xmcd
#
# Track frame offsets:
#	150
#	14074
#	32048
#	46386
#	64801
#	77803
#	96131
#	110982
#	125591
#	139434
#	153744
#	169174
#
# Disc length: 2506 seconds
# Revision: 0
# Processed by: cddbd v1.5.2PL0 Copyright (c) Steve Scherf et al.
# Submitted via: dBpowerAMP V12.0
#
DISCID=b209c80c
DTITLE=Melissa Cleveland - When You Say My Name
DYEAR=2007
DGENRE=Pop/Rock
TTITLE0=It's All About Me
TTITLE1=When You Say My Name
TTITLE2=Dirt Road Heartache
TTITLE3=After the Rain
TTITLE4=His Indecision Is Final
TTITLE5=If I Were an Angel
TTITLE6=One-Eighty
TTITLE7=Complete
TTITLE8=Shape-Up Heart
TTITLE9=There I Go Again
TTITLE10=I'm Gonna Go Down Swinging
TTITLE11=Tell Jesus Hi
EXTD=
EXTT0=
EXTT1=
EXTT2=
EXTT3=
EXTT4=
EXTT5=
EXTT6=
EXTT7=
EXTT8=
EXTT9=
EXTT10=
EXTT11=
PLAYORDER=
